<svg xmlns="http://www.w3.org/2000/svg" xmlns:xlink="http://www.w3.org/1999/xlink" width="2000" zoomAndPan="magnify" viewBox="0 0 1500 1499.999933" height="2000" preserveAspectRatio="xMidYMid meet" version="1.0"><path fill="#ffffff" d="M 766.609375 684.601562 C 795.675781 677.335938 817.472656 650.347656 817.472656 619.203125 C 817.472656 581.832031 787.371094 551.730469 750 551.730469 C 712.628906 551.730469 682.527344 581.832031 682.527344 619.203125 C 682.527344 650.347656 704.324219 677.335938 733.390625 684.601562 L 546.539062 1034.429688 C 544.464844 1037.542969 544.464844 1041.695312 546.539062 1044.808594 C 548.617188 1047.921875 551.730469 1050 555.882812 1050 L 945.15625 1050 C 949.308594 1050 952.421875 1047.921875 954.5 1044.808594 C 956.574219 1041.695312 956.574219 1037.542969 954.5 1034.429688 Z M 766.609375 684.601562 " fill-opacity="1" fill-rule="nonzero"/><path fill="#ffffff" d="M 591.175781 788.410156 C 594.289062 788.410156 596.367188 787.371094 598.441406 785.292969 C 602.59375 781.140625 602.59375 774.914062 598.441406 770.761719 C 515.398438 687.714844 515.398438 551.730469 598.441406 468.683594 C 602.59375 464.53125 602.59375 458.304688 598.441406 454.152344 C 594.289062 450 588.0625 450 583.910156 454.152344 C 492.5625 545.5 492.5625 693.945312 583.910156 785.292969 C 585.984375 787.371094 589.101562 788.410156 591.175781 788.410156 Z M 591.175781 788.410156 " fill-opacity="1" fill-rule="nonzero"/><path fill="#ffffff" d="M 901.558594 785.292969 C 903.632812 787.371094 906.746094 788.410156 908.824219 788.410156 C 910.898438 788.410156 914.015625 787.371094 916.089844 785.292969 C 1007.4375 693.945312 1007.4375 545.5 916.089844 454.152344 C 911.9375 450 905.710938 450 901.558594 454.152344 C 897.40625 458.304688 897.40625 464.53125 901.558594 468.683594 C 984.601562 551.730469 984.601562 687.714844 901.558594 770.761719 C 897.40625 773.875 897.40625 781.140625 901.558594 785.292969 Z M 901.558594 785.292969 " fill-opacity="1" fill-rule="nonzero"/><path fill="#ffffff" d="M 659.6875 719.894531 C 662.804688 719.894531 664.878906 718.859375 666.953125 716.78125 C 671.105469 712.628906 671.105469 706.402344 666.953125 702.25 C 621.28125 656.574219 621.28125 581.832031 666.953125 536.160156 C 671.105469 532.007812 671.105469 525.777344 666.953125 521.625 C 662.804688 517.472656 656.574219 517.472656 652.421875 521.625 C 598.441406 575.605469 598.441406 662.804688 652.421875 716.78125 C 654.5 718.859375 657.613281 719.894531 659.6875 719.894531 Z M 659.6875 719.894531 " fill-opacity="1" fill-rule="nonzero"/><path fill="#ffffff" d="M 833.046875 716.78125 C 835.121094 718.859375 838.234375 719.894531 840.3125 719.894531 C 842.386719 719.894531 845.5 718.859375 847.578125 716.78125 C 901.558594 662.800781 901.558594 575.605469 847.578125 521.625 C 843.425781 517.472656 837.195312 517.472656 833.046875 521.625 C 828.894531 525.777344 828.894531 532.007812 833.046875 536.160156 C 878.71875 581.832031 878.71875 656.574219 833.046875 702.25 C 828.894531 706.402344 828.894531 712.628906 833.046875 716.78125 Z M 833.046875 716.78125 " fill-opacity="1" fill-rule="nonzero"/></svg>